<svg width="863" height="487" viewBox="0 0 863 487" fill="none" xmlns="http://www.w3.org/2000/svg">
<path d="M0 473.6C0 452.4 27.6 407 82.8 337.4C138 267.4 198.8 202.6 265.2 143C274 121 278.4 103.6 278.4 90.8C278.4 36.8 232.6 9.79996 141 9.79996C113 9.79996 88.2 15 66.6 25.4C53.4 31.8 46.8 39.8 46.8 49.4C46.8 59 53.8 69 67.8 79.4C82.2 89.4 98 98.4 115.2 106.4C132.4 114.4 148 125 162 138.2C176.4 151 183.6 164.6 183.6 179C183.6 187 182.8 193 181.2 197C179.6 201 178.2 203 177 203C175 203 173.6 200.2 172.8 194.6C172.8 172.2 156 152 122.4 134C108 126.4 93.6 119 79.2 111.8C45.6 93.8 28.8 74.4 28.8 53.6C28.8 44 33.2 35.6 42 28.4C50.8 20.8 62 15 75.6 11C101.6 3.79998 123.8 0.199979 142.2 0.199979C160.6 0.199979 178 1.59998 194.4 4.4C210.8 7.19998 227.8 11.8 245.4 18.2C263.4 24.6 278 34.6 289.2 48.2C300.8 61.4 306.6 77.2 306.6 95.6C306.6 98 306.2 102.4 305.4 108.8C389 40.4 455 6.19997 503.4 6.19997C523.4 6.19997 533.4 14.6 533.4 31.4C533.4 50.6 522 75.8 499.2 107C476.8 138.2 449.4 166.2 417 191C385 215.4 357.2 227.6 333.6 227.6C306 227.6 291.2 213.4 289.2 185C289.2 178.6 291.2 175.4 295.2 175.4C298 175.4 300.6 178.4 303 184.4C305.8 190.4 310.8 197 318 204.2C325.6 211 333.4 214.4 341.4 214.4C359.8 214.4 381.8 202 407.4 177.2C433 152.4 454.4 126 471.6 98C489.2 69.6 498 49.2 498 36.8C498 28 493.4 23.6 484.2 23.6C443.8 23.6 382 60 298.8 132.8C285.6 170.8 260 218.2 222 275C184 331.4 144.6 380.8 103.8 423.2C63 465.6 33.2 486.8 14.4 486.8C4.8 486.8 0 482.4 0 473.6ZM25.8 470C45.4 470 80.6 436.4 131.4 369.2C182.2 302 222.2 237.6 251.4 176C192.2 232.8 139.4 290.8 93 350C46.6 408.8 23.4 447.8 23.4 467C23.4 469 24.2 470 25.8 470ZM342.989 435.2C342.989 429.2 345.789 421.4 351.389 411.8C357.389 402.2 360.589 396.6 360.989 395C361.389 393.4 360.989 392.6 359.789 392.6C358.589 392.6 356.789 393.8 354.389 396.2C352.389 398.2 340.189 406.6 317.789 421.4C295.789 435.8 280.589 443 272.189 443C266.589 443 263.789 439.4 263.789 432.2C263.789 425 274.989 406.4 297.389 376.4C319.789 346.4 335.589 331.4 344.789 331.4C346.789 331.4 348.589 332.4 350.189 334.4C352.189 336 353.189 337.4 353.189 338.6C353.189 339.4 342.789 351.6 321.989 375.2C301.589 398.8 291.389 414 291.389 420.8C291.389 422.4 292.189 423.2 293.789 423.2C301.389 423.2 317.789 413 342.989 392.6C368.189 372.2 385.989 356.4 396.389 345.2C407.189 334 415.589 328.4 421.589 328.4C427.589 328.4 430.589 331 430.589 336.2C430.589 339.4 429.389 342.6 426.989 345.8C424.589 349 419.989 354.8 413.189 363.2C406.789 371.2 400.789 378.8 395.189 386C379.589 406 371.789 418.6 371.789 423.8C371.789 428.6 373.789 431 377.789 431C382.189 431 392.589 425.4 408.989 414.2C439.389 394.2 467.189 374 492.389 353.6L505.589 342.8C508.389 340.8 510.789 339.8 512.789 339.8C514.789 339.8 515.789 341 515.789 343.4V345.2C517.389 345.2 506.589 354 483.389 371.6C460.589 389.2 435.989 406.8 409.589 424.4C383.589 442 367.189 450.8 360.389 450.8C348.789 450.8 342.989 445.6 342.989 435.2ZM667.027 343.4C669.827 341.4 672.427 340.4 674.827 340.4C677.227 340.4 678.427 341.8 678.427 344.6V345.8C648.427 369.8 618.827 392.4 589.627 413.6C560.427 434.4 539.027 444.8 525.427 444.8C515.427 444.8 510.427 439.4 510.427 428.6C510.427 417.8 515.227 407 524.827 396.2C534.427 385.4 543.827 376 553.027 368C562.627 360 567.427 354.8 567.427 352.4C567.427 349.6 565.827 346.6 562.627 343.4C559.827 339.8 557.427 337.4 555.427 336.2C548.627 343 533.827 355.4 511.027 373.4L508.627 364.4C533.827 344.4 548.427 331 552.427 324.2V318.8C552.427 308.8 553.427 302 555.427 298.4C557.427 294.8 562.227 289.8 569.827 283.4C577.427 277 582.627 273.8 585.427 273.8C588.227 273.8 590.627 274.8 592.627 276.8C595.027 278.8 596.227 280.8 596.227 282.8C596.227 284.8 595.427 287.2 593.827 290C592.627 292.4 591.227 294.6 589.627 296.6C588.427 298.2 586.627 300.4 584.227 303.2C581.827 305.6 580.227 307.4 579.427 308.6C579.027 309.4 578.427 311 577.627 313.4C577.227 315.8 576.027 317.8 574.027 319.4C572.027 321 571.027 323 571.027 325.4C571.027 327.8 572.627 333.2 575.827 341.6C579.027 349.6 580.627 355.6 580.627 359.6C580.627 363.2 573.227 372.2 558.427 386.6C543.627 400.6 536.227 412 536.227 420.8C536.227 425.6 538.427 428 542.827 428C548.427 428 558.827 423 574.027 413L581.227 408.2C607.227 390.2 631.627 372 654.427 353.6L667.027 343.4ZM851.048 343.4C853.848 341.4 856.448 340.4 858.848 340.4C861.248 340.4 862.448 341.8 862.448 344.6V345.8C820.848 380.2 786.248 406 758.648 423.2C731.048 440.4 706.048 449 683.648 449C665.648 449 656.648 440.2 656.648 422.6C656.648 396.6 669.848 370 696.248 342.8C722.648 315.2 744.848 301.4 762.848 301.4C772.848 301.4 777.848 307 777.848 318.2C775.848 340.2 744.248 369.8 683.048 407V413C683.048 426.2 689.848 432.8 703.448 432.8C717.448 432.8 732.448 428.2 748.448 419C779.648 400.6 808.848 379.6 836.048 356L851.048 343.4ZM747.248 320C738.448 320 727.048 327.4 713.048 342.2C699.448 357 690.248 373.8 685.448 392.6C704.648 381 720.848 368.8 734.048 356C747.248 342.8 753.848 333.6 753.848 328.4C753.848 322.8 751.648 320 747.248 320Z" fill="url(#paint0_linear)"/>
<defs>
<linearGradient id="paint0_linear" x1="79" y1="15" x2="739.5" y2="424.5" gradientUnits="userSpaceOnUse">
<stop stop-color="#272B37" stop-opacity="0.04"/>
<stop offset="1" stop-color="#272B37" stop-opacity="0.02"/>
</linearGradient>
</defs>
</svg>
