<svg width="87" height="50" viewBox="0 0 87 50" fill="none" xmlns="http://www.w3.org/2000/svg">
<path d="M0 48.06C0 45.94 2.76 41.4 8.28 34.44C13.8 27.44 19.88 20.96 26.52 15C27.4 12.8 27.84 11.06 27.84 9.78C27.84 4.38 23.26 1.68 14.1 1.68C11.3 1.68 8.82 2.2 6.66 3.24C5.34 3.88 4.68 4.68 4.68 5.64C4.68 6.6 5.38 7.6 6.78 8.64C8.22 9.64 9.8 10.54 11.52 11.34C13.24 12.14 14.8 13.2 16.2 14.52C17.64 15.8 18.36 17.16 18.36 18.6C18.36 19.4 18.28 20 18.12 20.4C17.96 20.8 17.82 21 17.7 21C17.5 21 17.36 20.72 17.28 20.16C17.28 17.92 15.6 15.9 12.24 14.1C10.8 13.34 9.36 12.6 7.92 11.88C4.56 10.08 2.88 8.14 2.88 6.06C2.88 5.1 3.32 4.26 4.2 3.54C5.08 2.78 6.2 2.2 7.56 1.8C10.16 1.08 12.38 0.719998 14.22 0.719998C16.06 0.719998 17.8 0.859998 19.44 1.14C21.08 1.42 22.78 1.88 24.54 2.52C26.34 3.16 27.8 4.16 28.92 5.52C30.08 6.84 30.66 8.42 30.66 10.26C30.66 10.5 30.62 10.94 30.54 11.58C38.9 4.74 45.5 1.32 50.34 1.32C52.34 1.32 53.34 2.16 53.34 3.84C53.34 5.76 52.2 8.28 49.92 11.4C47.68 14.52 44.94 17.32 41.7 19.8C38.5 22.24 35.72 23.46 33.36 23.46C30.6 23.46 29.12 22.04 28.92 19.2C28.92 18.56 29.12 18.24 29.52 18.24C29.8 18.24 30.06 18.54 30.3 19.14C30.58 19.74 31.08 20.4 31.8 21.12C32.56 21.8 33.34 22.14 34.14 22.14C35.98 22.14 38.18 20.9 40.74 18.42C43.3 15.94 45.44 13.3 47.16 10.5C48.92 7.66 49.8 5.62 49.8 4.38C49.8 3.5 49.34 3.06 48.42 3.06C44.38 3.06 38.2 6.7 29.88 13.98C28.56 17.78 26 22.52 22.2 28.2C18.4 33.84 14.46 38.78 10.38 43.02C6.3 47.26 3.32 49.38 1.44 49.38C0.48 49.38 0 48.94 0 48.06ZM2.58 47.7C4.54 47.7 8.06 44.34 13.14 37.62C18.22 30.9 22.22 24.46 25.14 18.3C19.22 23.98 13.94 29.78 9.3 35.7C4.66 41.58 2.34 45.48 2.34 47.4C2.34 47.6 2.42 47.7 2.58 47.7ZM34.2989 44.22C34.2989 43.62 34.5789 42.84 35.1389 41.88C35.7389 40.92 36.0589 40.36 36.0989 40.2C36.1389 40.04 36.0989 39.96 35.9789 39.96C35.8589 39.96 35.6789 40.08 35.4389 40.32C35.2389 40.52 34.0189 41.36 31.7789 42.84C29.5789 44.28 28.0589 45 27.2189 45C26.6589 45 26.3789 44.64 26.3789 43.92C26.3789 43.2 27.4989 41.34 29.7389 38.34C31.9789 35.34 33.5589 33.84 34.4789 33.84C34.6789 33.84 34.8589 33.94 35.0189 34.14C35.2189 34.3 35.3189 34.44 35.3189 34.56C35.3189 34.64 34.2789 35.86 32.1989 38.22C30.1589 40.58 29.1389 42.1 29.1389 42.78C29.1389 42.94 29.2189 43.02 29.3789 43.02C30.1389 43.02 31.7789 42 34.2989 39.96C36.8189 37.92 38.5989 36.34 39.6389 35.22C40.7189 34.1 41.5589 33.54 42.1589 33.54C42.7589 33.54 43.0589 33.8 43.0589 34.32C43.0589 34.64 42.9389 34.96 42.6989 35.28C42.4589 35.6 41.9989 36.18 41.3189 37.02C40.6789 37.82 40.0789 38.58 39.5189 39.3C37.9589 41.3 37.1789 42.56 37.1789 43.08C37.1789 43.56 37.3789 43.8 37.7789 43.8C38.2189 43.8 39.2589 43.24 40.8989 42.12C43.9389 40.12 46.7189 38.1 49.2389 36.06L50.5589 34.98C50.8389 34.78 51.0789 34.68 51.2789 34.68C51.4789 34.68 51.5789 34.8 51.5789 35.04V35.22C51.7389 35.22 50.6589 36.1 48.3389 37.86C46.0589 39.62 43.5989 41.38 40.9589 43.14C38.3589 44.9 36.7189 45.78 36.0389 45.78C34.8789 45.78 34.2989 45.26 34.2989 44.22ZM66.7027 35.04C66.9827 34.84 67.2427 34.74 67.4827 34.74C67.7227 34.74 67.8427 34.88 67.8427 35.16V35.28C64.8427 37.68 61.8827 39.94 58.9627 42.06C56.0427 44.14 53.9027 45.18 52.5427 45.18C51.5427 45.18 51.0427 44.64 51.0427 43.56C51.0427 42.48 51.5227 41.4 52.4827 40.32C53.4427 39.24 54.3827 38.3 55.3027 37.5C56.2627 36.7 56.7427 36.18 56.7427 35.94C56.7427 35.66 56.5827 35.36 56.2627 35.04C55.9827 34.68 55.7427 34.44 55.5427 34.32C54.8627 35 53.3827 36.24 51.1027 38.04L50.8627 37.14C53.3827 35.14 54.8427 33.8 55.2427 33.12V32.58C55.2427 31.58 55.3427 30.9 55.5427 30.54C55.7427 30.18 56.2227 29.68 56.9827 29.04C57.7427 28.4 58.2627 28.08 58.5427 28.08C58.8227 28.08 59.0627 28.18 59.2627 28.38C59.5027 28.58 59.6227 28.78 59.6227 28.98C59.6227 29.18 59.5427 29.42 59.3827 29.7C59.2627 29.94 59.1227 30.16 58.9627 30.36C58.8427 30.52 58.6627 30.74 58.4227 31.02C58.1827 31.26 58.0227 31.44 57.9427 31.56C57.9027 31.64 57.8427 31.8 57.7627 32.04C57.7227 32.28 57.6027 32.48 57.4027 32.64C57.2027 32.8 57.1027 33 57.1027 33.24C57.1027 33.48 57.2627 34.02 57.5827 34.86C57.9027 35.66 58.0627 36.26 58.0627 36.66C58.0627 37.02 57.3227 37.92 55.8427 39.36C54.3627 40.76 53.6227 41.9 53.6227 42.78C53.6227 43.26 53.8427 43.5 54.2827 43.5C54.8427 43.5 55.8827 43 57.4027 42L58.1227 41.52C60.7227 39.72 63.1627 37.9 65.4427 36.06L66.7027 35.04ZM85.1048 35.04C85.3848 34.84 85.6448 34.74 85.8848 34.74C86.1248 34.74 86.2448 34.88 86.2448 35.16V35.28C82.0848 38.72 78.6248 41.3 75.8648 43.02C73.1048 44.74 70.6048 45.6 68.3648 45.6C66.5648 45.6 65.6648 44.72 65.6648 42.96C65.6648 40.36 66.9848 37.7 69.6248 34.98C72.2648 32.22 74.4848 30.84 76.2848 30.84C77.2848 30.84 77.7848 31.4 77.7848 32.52C77.5848 34.72 74.4248 37.68 68.3048 41.4V42C68.3048 43.32 68.9848 43.98 70.3448 43.98C71.7448 43.98 73.2448 43.52 74.8448 42.6C77.9648 40.76 80.8848 38.66 83.6048 36.3L85.1048 35.04ZM74.7248 32.7C73.8448 32.7 72.7048 33.44 71.3048 34.92C69.9448 36.4 69.0248 38.08 68.5448 39.96C70.4648 38.8 72.0848 37.58 73.4048 36.3C74.7248 34.98 75.3848 34.06 75.3848 33.54C75.3848 32.98 75.1648 32.7 74.7248 32.7Z" fill="white"/>
</svg>
